<mxfile host="app.diagrams.net" modified="2024-05-10T19:41:44.616Z" agent="Mozilla/5.0 (Windows NT 10.0; Win64; x64) AppleWebKit/537.36 (KHTML, like Gecko) Chrome/124.0.0.0 Safari/537.36" etag="KDj3Pr7cg-ppDsdf5Ock" version="24.3.1" type="device">
  <diagram name="Page-1" id="vZL2R9rKv9laP-wcjCIe">
    <mxGraphModel dx="1433" dy="1866" grid="0" gridSize="10" guides="1" tooltips="1" connect="1" arrows="1" fold="1" page="0" pageScale="1" pageWidth="850" pageHeight="1100" math="0" shadow="0">
      <root>
        <mxCell id="0" />
        <mxCell id="1" parent="0" />
        <mxCell id="avBrp512WOhUkqU3lyuj-1" value="Recipe" style="swimlane;childLayout=stackLayout;horizontal=1;startSize=50;horizontalStack=0;rounded=1;fontSize=14;fontStyle=0;strokeWidth=2;resizeParent=0;resizeLast=1;shadow=0;dashed=0;align=center;arcSize=4;whiteSpace=wrap;html=1;" parent="1" vertex="1">
          <mxGeometry x="113" y="97" width="170" height="207" as="geometry" />
        </mxCell>
        <mxCell id="avBrp512WOhUkqU3lyuj-2" value="&lt;u&gt;RecipeID&lt;/u&gt;&lt;div&gt;RecipeName&lt;/div&gt;&lt;div&gt;IsBaking&lt;/div&gt;&lt;div&gt;DifficultyLevel&lt;/div&gt;&lt;div&gt;Description&lt;/div&gt;&lt;div&gt;&lt;span style=&quot;background-color: initial;&quot;&gt;TotalTime&lt;/span&gt;&lt;/div&gt;&lt;blockquote style=&quot;margin: 0 0 0 40px; border: none; padding: 0px;&quot;&gt;&lt;div&gt;PreparationTime&lt;/div&gt;&lt;div&gt;CookingTime&lt;/div&gt;&lt;/blockquote&gt;&lt;div&gt;NumberOfPortions&lt;/div&gt;" style="align=left;strokeColor=none;fillColor=none;spacingLeft=4;fontSize=12;verticalAlign=top;resizable=0;rotatable=0;part=1;html=1;" parent="avBrp512WOhUkqU3lyuj-1" vertex="1">
          <mxGeometry y="50" width="170" height="157" as="geometry" />
        </mxCell>
        <mxCell id="avBrp512WOhUkqU3lyuj-3" value="EthnicCuisine" style="swimlane;childLayout=stackLayout;horizontal=1;startSize=50;horizontalStack=0;rounded=1;fontSize=14;fontStyle=0;strokeWidth=2;resizeParent=0;resizeLast=1;shadow=0;dashed=0;align=center;arcSize=4;whiteSpace=wrap;html=1;" parent="1" vertex="1">
          <mxGeometry x="518" y="129" width="155" height="90" as="geometry" />
        </mxCell>
        <mxCell id="avBrp512WOhUkqU3lyuj-4" value="&lt;u&gt;CuisineID&lt;/u&gt;&lt;div&gt;CuisineName&lt;/div&gt;" style="align=left;strokeColor=none;fillColor=none;spacingLeft=4;fontSize=12;verticalAlign=top;resizable=0;rotatable=0;part=1;html=1;" parent="avBrp512WOhUkqU3lyuj-3" vertex="1">
          <mxGeometry y="50" width="155" height="40" as="geometry" />
        </mxCell>
        <mxCell id="avBrp512WOhUkqU3lyuj-11" value="Label" style="swimlane;childLayout=stackLayout;horizontal=1;startSize=50;horizontalStack=0;rounded=1;fontSize=14;fontStyle=0;strokeWidth=2;resizeParent=0;resizeLast=1;shadow=0;dashed=0;align=center;arcSize=4;whiteSpace=wrap;html=1;" parent="1" vertex="1">
          <mxGeometry x="518" y="293" width="152" height="91" as="geometry" />
        </mxCell>
        <mxCell id="avBrp512WOhUkqU3lyuj-12" value="&lt;u&gt;LabelID&lt;/u&gt;&lt;div&gt;LabelName&lt;/div&gt;" style="align=left;strokeColor=none;fillColor=none;spacingLeft=4;fontSize=12;verticalAlign=top;resizable=0;rotatable=0;part=1;html=1;" parent="avBrp512WOhUkqU3lyuj-11" vertex="1">
          <mxGeometry y="50" width="152" height="41" as="geometry" />
        </mxCell>
        <mxCell id="avBrp512WOhUkqU3lyuj-13" value="Equipment" style="swimlane;childLayout=stackLayout;horizontal=1;startSize=50;horizontalStack=0;rounded=1;fontSize=14;fontStyle=0;strokeWidth=2;resizeParent=0;resizeLast=1;shadow=0;dashed=0;align=center;arcSize=4;whiteSpace=wrap;html=1;" parent="1" vertex="1">
          <mxGeometry x="518" y="460" width="163" height="105" as="geometry" />
        </mxCell>
        <mxCell id="avBrp512WOhUkqU3lyuj-14" value="&lt;u&gt;EquipmentID&lt;/u&gt;&lt;div&gt;EquipmentName&lt;/div&gt;&lt;div&gt;EquipmentInstructions&lt;/div&gt;" style="align=left;strokeColor=none;fillColor=none;spacingLeft=4;fontSize=12;verticalAlign=top;resizable=0;rotatable=0;part=1;html=1;" parent="avBrp512WOhUkqU3lyuj-13" vertex="1">
          <mxGeometry y="50" width="163" height="55" as="geometry" />
        </mxCell>
        <mxCell id="avBrp512WOhUkqU3lyuj-15" value="MealCategory" style="swimlane;childLayout=stackLayout;horizontal=1;startSize=50;horizontalStack=0;rounded=1;fontSize=14;fontStyle=0;strokeWidth=2;resizeParent=0;resizeLast=1;shadow=0;dashed=0;align=center;arcSize=4;whiteSpace=wrap;html=1;" parent="1" vertex="1">
          <mxGeometry x="-194" y="129" width="158" height="91" as="geometry" />
        </mxCell>
        <mxCell id="avBrp512WOhUkqU3lyuj-16" value="&lt;u&gt;CategoryID&lt;/u&gt;&lt;div&gt;CategoryName&lt;/div&gt;" style="align=left;strokeColor=none;fillColor=none;spacingLeft=4;fontSize=12;verticalAlign=top;resizable=0;rotatable=0;part=1;html=1;" parent="avBrp512WOhUkqU3lyuj-15" vertex="1">
          <mxGeometry y="50" width="158" height="41" as="geometry" />
        </mxCell>
        <mxCell id="avBrp512WOhUkqU3lyuj-17" value="Tips" style="swimlane;childLayout=stackLayout;horizontal=1;startSize=50;horizontalStack=0;rounded=1;fontSize=14;fontStyle=0;strokeWidth=2;resizeParent=0;resizeLast=1;shadow=0;dashed=0;align=center;arcSize=4;whiteSpace=wrap;html=1;" parent="1" vertex="1">
          <mxGeometry x="-193" y="302" width="158" height="93" as="geometry" />
        </mxCell>
        <mxCell id="avBrp512WOhUkqU3lyuj-18" value="&lt;u&gt;TipsID&lt;/u&gt;&lt;div&gt;TipsDescription&lt;/div&gt;" style="align=left;strokeColor=none;fillColor=none;spacingLeft=4;fontSize=12;verticalAlign=top;resizable=0;rotatable=0;part=1;html=1;" parent="avBrp512WOhUkqU3lyuj-17" vertex="1">
          <mxGeometry y="50" width="158" height="43" as="geometry" />
        </mxCell>
        <mxCell id="avBrp512WOhUkqU3lyuj-19" value="Step" style="swimlane;childLayout=stackLayout;horizontal=1;startSize=50;horizontalStack=0;rounded=1;fontSize=14;fontStyle=0;strokeWidth=2;resizeParent=0;resizeLast=1;shadow=0;dashed=0;align=center;arcSize=4;whiteSpace=wrap;html=1;" parent="1" vertex="1">
          <mxGeometry x="-194" y="483" width="160" height="120" as="geometry" />
        </mxCell>
        <mxCell id="avBrp512WOhUkqU3lyuj-20" value="&lt;u&gt;StepID&lt;/u&gt;&lt;div&gt;StepNumber&lt;/div&gt;&lt;div&gt;StepDescription&lt;/div&gt;" style="align=left;strokeColor=none;fillColor=none;spacingLeft=4;fontSize=12;verticalAlign=top;resizable=0;rotatable=0;part=1;html=1;" parent="avBrp512WOhUkqU3lyuj-19" vertex="1">
          <mxGeometry y="50" width="160" height="70" as="geometry" />
        </mxCell>
        <mxCell id="avBrp512WOhUkqU3lyuj-21" value="Ingredient" style="swimlane;childLayout=stackLayout;horizontal=1;startSize=50;horizontalStack=0;rounded=1;fontSize=14;fontStyle=0;strokeWidth=2;resizeParent=0;resizeLast=1;shadow=0;dashed=0;align=center;arcSize=4;whiteSpace=wrap;html=1;" parent="1" vertex="1">
          <mxGeometry x="110.5" y="366" width="160" height="120" as="geometry" />
        </mxCell>
        <mxCell id="avBrp512WOhUkqU3lyuj-22" value="&lt;u&gt;IngredientID&lt;/u&gt;&lt;div&gt;IngredientName&lt;/div&gt;" style="align=left;strokeColor=none;fillColor=none;spacingLeft=4;fontSize=12;verticalAlign=top;resizable=0;rotatable=0;part=1;html=1;" parent="avBrp512WOhUkqU3lyuj-21" vertex="1">
          <mxGeometry y="50" width="160" height="70" as="geometry" />
        </mxCell>
        <mxCell id="avBrp512WOhUkqU3lyuj-23" value="Unit" style="swimlane;childLayout=stackLayout;horizontal=1;startSize=50;horizontalStack=0;rounded=1;fontSize=14;fontStyle=0;strokeWidth=2;resizeParent=0;resizeLast=1;shadow=0;dashed=0;align=center;arcSize=4;whiteSpace=wrap;html=1;" parent="1" vertex="1">
          <mxGeometry x="100" y="525" width="160" height="120" as="geometry" />
        </mxCell>
        <mxCell id="avBrp512WOhUkqU3lyuj-24" value="&lt;u&gt;UnitID&lt;/u&gt;&lt;div&gt;UnitName&lt;/div&gt;&lt;div&gt;UnitConvertValue&lt;/div&gt;" style="align=left;strokeColor=none;fillColor=none;spacingLeft=4;fontSize=12;verticalAlign=top;resizable=0;rotatable=0;part=1;html=1;" parent="avBrp512WOhUkqU3lyuj-23" vertex="1">
          <mxGeometry y="50" width="160" height="70" as="geometry" />
        </mxCell>
        <mxCell id="avBrp512WOhUkqU3lyuj-25" value="Quantity" style="swimlane;childLayout=stackLayout;horizontal=1;startSize=50;horizontalStack=0;rounded=1;fontSize=14;fontStyle=0;strokeWidth=2;resizeParent=0;resizeLast=1;shadow=0;dashed=0;align=center;arcSize=4;whiteSpace=wrap;html=1;" parent="1" vertex="1">
          <mxGeometry x="116" y="696" width="160" height="120" as="geometry" />
        </mxCell>
        <mxCell id="avBrp512WOhUkqU3lyuj-26" value="&lt;u&gt;QuantityID&lt;/u&gt;&lt;div&gt;QuantityValue&lt;/div&gt;" style="align=left;strokeColor=none;fillColor=none;spacingLeft=4;fontSize=12;verticalAlign=top;resizable=0;rotatable=0;part=1;html=1;" parent="avBrp512WOhUkqU3lyuj-25" vertex="1">
          <mxGeometry y="50" width="160" height="70" as="geometry" />
        </mxCell>
        <mxCell id="avBrp512WOhUkqU3lyuj-27" value="StandardUnit" style="swimlane;childLayout=stackLayout;horizontal=1;startSize=50;horizontalStack=0;rounded=1;fontSize=14;fontStyle=0;strokeWidth=2;resizeParent=0;resizeLast=1;shadow=0;dashed=0;align=center;arcSize=4;whiteSpace=wrap;html=1;" parent="1" vertex="1">
          <mxGeometry x="116" y="875" width="158" height="90" as="geometry" />
        </mxCell>
        <mxCell id="avBrp512WOhUkqU3lyuj-28" value="&lt;div&gt;&lt;u&gt;StandardUnitID&lt;/u&gt;&lt;/div&gt;&lt;div&gt;StandardUnitName&lt;/div&gt;" style="align=left;strokeColor=none;fillColor=none;spacingLeft=4;fontSize=12;verticalAlign=top;resizable=0;rotatable=0;part=1;html=1;" parent="avBrp512WOhUkqU3lyuj-27" vertex="1">
          <mxGeometry y="50" width="158" height="40" as="geometry" />
        </mxCell>
        <mxCell id="avBrp512WOhUkqU3lyuj-29" value="FoodGroup" style="swimlane;childLayout=stackLayout;horizontal=1;startSize=50;horizontalStack=0;rounded=1;fontSize=14;fontStyle=0;strokeWidth=2;resizeParent=0;resizeLast=1;shadow=0;dashed=0;align=center;arcSize=4;whiteSpace=wrap;html=1;" parent="1" vertex="1">
          <mxGeometry x="118" y="-81" width="160" height="106" as="geometry" />
        </mxCell>
        <mxCell id="avBrp512WOhUkqU3lyuj-30" value="&lt;u&gt;GroupID&lt;/u&gt;&lt;div&gt;GroupName&lt;/div&gt;&lt;div&gt;GroupDescription&lt;/div&gt;" style="align=left;strokeColor=none;fillColor=none;spacingLeft=4;fontSize=12;verticalAlign=top;resizable=0;rotatable=0;part=1;html=1;" parent="avBrp512WOhUkqU3lyuj-29" vertex="1">
          <mxGeometry y="50" width="160" height="56" as="geometry" />
        </mxCell>
        <mxCell id="avBrp512WOhUkqU3lyuj-31" value="ThematicUnit" style="swimlane;childLayout=stackLayout;horizontal=1;startSize=50;horizontalStack=0;rounded=1;fontSize=14;fontStyle=0;strokeWidth=2;resizeParent=0;resizeLast=1;shadow=0;dashed=0;align=center;arcSize=4;whiteSpace=wrap;html=1;" parent="1" vertex="1">
          <mxGeometry x="-194" y="663" width="160" height="120" as="geometry" />
        </mxCell>
        <mxCell id="avBrp512WOhUkqU3lyuj-32" value="&lt;u&gt;ThematicUnitID&lt;/u&gt;&lt;div&gt;ThematicUnitName&lt;/div&gt;&lt;div&gt;ThematicUnitDescription&lt;/div&gt;" style="align=left;strokeColor=none;fillColor=none;spacingLeft=4;fontSize=12;verticalAlign=top;resizable=0;rotatable=0;part=1;html=1;" parent="avBrp512WOhUkqU3lyuj-31" vertex="1">
          <mxGeometry y="50" width="160" height="70" as="geometry" />
        </mxCell>
        <mxCell id="avBrp512WOhUkqU3lyuj-33" value="Cook" style="swimlane;childLayout=stackLayout;horizontal=1;startSize=50;horizontalStack=0;rounded=1;fontSize=14;fontStyle=0;strokeWidth=2;resizeParent=0;resizeLast=1;shadow=0;dashed=0;align=center;arcSize=4;whiteSpace=wrap;html=1;" parent="1" vertex="1">
          <mxGeometry x="122" y="-316" width="167" height="181" as="geometry" />
        </mxCell>
        <mxCell id="avBrp512WOhUkqU3lyuj-34" value="&lt;u&gt;CookID&lt;/u&gt;&lt;div&gt;FirstName&lt;/div&gt;&lt;div&gt;LastNname&lt;/div&gt;&lt;div&gt;[&lt;span style=&quot;background-color: initial;&quot;&gt;PhoneNumber&lt;/span&gt;&lt;span style=&quot;background-color: initial;&quot;&gt;]&lt;/span&gt;&lt;/div&gt;&lt;div&gt;BirthDate&lt;/div&gt;&lt;div&gt;Age ()&lt;/div&gt;&lt;div&gt;ExperienceYears&lt;/div&gt;&lt;div&gt;TrainingLevel&lt;/div&gt;" style="align=left;strokeColor=none;fillColor=none;spacingLeft=4;fontSize=12;verticalAlign=top;resizable=0;rotatable=0;part=1;html=1;" parent="avBrp512WOhUkqU3lyuj-33" vertex="1">
          <mxGeometry y="50" width="167" height="131" as="geometry" />
        </mxCell>
        <mxCell id="avBrp512WOhUkqU3lyuj-37" value="Episode" style="swimlane;childLayout=stackLayout;horizontal=1;startSize=50;horizontalStack=0;rounded=1;fontSize=14;fontStyle=0;strokeWidth=2;resizeParent=0;resizeLast=1;shadow=0;dashed=0;align=center;arcSize=4;whiteSpace=wrap;html=1;" parent="1" vertex="1">
          <mxGeometry x="116" y="-483" width="160" height="94" as="geometry" />
        </mxCell>
        <mxCell id="avBrp512WOhUkqU3lyuj-38" value="&lt;u&gt;EpisodeID&lt;/u&gt;&lt;div&gt;&lt;span style=&quot;background-color: initial;&quot;&gt;EpisodeNumber&lt;/span&gt;&lt;br&gt;&lt;/div&gt;&lt;div&gt;&lt;br&gt;&lt;/div&gt;" style="align=left;strokeColor=none;fillColor=none;spacingLeft=4;fontSize=12;verticalAlign=top;resizable=0;rotatable=0;part=1;html=1;" parent="avBrp512WOhUkqU3lyuj-37" vertex="1">
          <mxGeometry y="50" width="160" height="44" as="geometry" />
        </mxCell>
        <mxCell id="avBrp512WOhUkqU3lyuj-39" value="Image" style="swimlane;childLayout=stackLayout;horizontal=1;startSize=50;horizontalStack=0;rounded=1;fontSize=14;fontStyle=0;strokeWidth=2;resizeParent=0;resizeLast=1;shadow=0;dashed=0;align=center;arcSize=4;whiteSpace=wrap;html=1;" parent="1" vertex="1">
          <mxGeometry x="518" y="-483" width="160" height="120" as="geometry" />
        </mxCell>
        <mxCell id="avBrp512WOhUkqU3lyuj-40" value="&lt;u&gt;ImageID&lt;/u&gt;&lt;div&gt;ImageDescription&lt;/div&gt;" style="align=left;strokeColor=none;fillColor=none;spacingLeft=4;fontSize=12;verticalAlign=top;resizable=0;rotatable=0;part=1;html=1;" parent="avBrp512WOhUkqU3lyuj-39" vertex="1">
          <mxGeometry y="50" width="160" height="70" as="geometry" />
        </mxCell>
        <mxCell id="avBrp512WOhUkqU3lyuj-46" value="NutritionalContent" style="swimlane;childLayout=stackLayout;horizontal=1;startSize=50;horizontalStack=0;rounded=1;fontSize=14;fontStyle=0;strokeWidth=2;resizeParent=0;resizeLast=1;shadow=0;dashed=0;align=center;arcSize=4;whiteSpace=wrap;html=1;" parent="1" vertex="1">
          <mxGeometry x="518" y="803" width="163" height="132" as="geometry" />
        </mxCell>
        <mxCell id="avBrp512WOhUkqU3lyuj-47" value="&lt;u&gt;NutritionalContentID&lt;/u&gt;&lt;div&gt;FatsPer100&lt;/div&gt;&lt;div&gt;ProteinPer100&lt;/div&gt;&lt;div&gt;CarbsPer100&lt;/div&gt;&lt;div&gt;CaloriesPer100&lt;/div&gt;" style="align=left;strokeColor=none;fillColor=none;spacingLeft=4;fontSize=12;verticalAlign=top;resizable=0;rotatable=0;part=1;html=1;" parent="avBrp512WOhUkqU3lyuj-46" vertex="1">
          <mxGeometry y="50" width="163" height="82" as="geometry" />
        </mxCell>
        <mxCell id="avBrp512WOhUkqU3lyuj-54" value="" style="edgeStyle=entityRelationEdgeStyle;fontSize=12;html=1;endArrow=ERoneToMany;rounded=0;entryX=1;entryY=0.25;entryDx=0;entryDy=0;exitX=0;exitY=0;exitDx=0;exitDy=0;" parent="1" source="avBrp512WOhUkqU3lyuj-4" target="avBrp512WOhUkqU3lyuj-2" edge="1">
          <mxGeometry width="100" height="100" relative="1" as="geometry">
            <mxPoint x="449" y="179" as="sourcePoint" />
            <mxPoint x="417" y="243" as="targetPoint" />
            <Array as="points">
              <mxPoint x="363" y="228" />
            </Array>
          </mxGeometry>
        </mxCell>
        <mxCell id="avBrp512WOhUkqU3lyuj-59" value="" style="edgeStyle=entityRelationEdgeStyle;fontSize=12;html=1;endArrow=ERoneToMany;rounded=0;entryX=1;entryY=0;entryDx=0;entryDy=0;exitX=-0.008;exitY=0.353;exitDx=0;exitDy=0;exitPerimeter=0;" parent="1" source="avBrp512WOhUkqU3lyuj-2" target="avBrp512WOhUkqU3lyuj-18" edge="1">
          <mxGeometry width="100" height="100" relative="1" as="geometry">
            <mxPoint x="2" y="358" as="sourcePoint" />
            <mxPoint x="102" y="258" as="targetPoint" />
          </mxGeometry>
        </mxCell>
        <mxCell id="avBrp512WOhUkqU3lyuj-60" value="" style="edgeStyle=entityRelationEdgeStyle;fontSize=12;html=1;endArrow=ERoneToMany;rounded=0;entryX=1;entryY=0;entryDx=0;entryDy=0;exitX=-0.008;exitY=0.439;exitDx=0;exitDy=0;exitPerimeter=0;" parent="1" source="avBrp512WOhUkqU3lyuj-2" target="avBrp512WOhUkqU3lyuj-20" edge="1">
          <mxGeometry width="100" height="100" relative="1" as="geometry">
            <mxPoint x="-7" y="472" as="sourcePoint" />
            <mxPoint x="93" y="372" as="targetPoint" />
          </mxGeometry>
        </mxCell>
        <mxCell id="avBrp512WOhUkqU3lyuj-62" value="" style="edgeStyle=entityRelationEdgeStyle;fontSize=12;html=1;endArrow=ERmany;startArrow=ERmany;rounded=0;entryX=-0.004;entryY=0.058;entryDx=0;entryDy=0;entryPerimeter=0;exitX=1;exitY=0;exitDx=0;exitDy=0;" parent="1" source="avBrp512WOhUkqU3lyuj-16" target="avBrp512WOhUkqU3lyuj-2" edge="1">
          <mxGeometry width="100" height="100" relative="1" as="geometry">
            <mxPoint x="-18" y="238" as="sourcePoint" />
            <mxPoint x="82" y="138" as="targetPoint" />
          </mxGeometry>
        </mxCell>
        <mxCell id="avBrp512WOhUkqU3lyuj-63" value="" style="edgeStyle=entityRelationEdgeStyle;fontSize=12;html=1;endArrow=ERmany;startArrow=ERmany;rounded=0;entryX=0;entryY=0;entryDx=0;entryDy=0;exitX=1.004;exitY=0.404;exitDx=0;exitDy=0;exitPerimeter=0;" parent="1" source="avBrp512WOhUkqU3lyuj-2" target="avBrp512WOhUkqU3lyuj-12" edge="1">
          <mxGeometry width="100" height="100" relative="1" as="geometry">
            <mxPoint x="324" y="269" as="sourcePoint" />
            <mxPoint x="362" y="380" as="targetPoint" />
          </mxGeometry>
        </mxCell>
        <mxCell id="avBrp512WOhUkqU3lyuj-64" value="" style="edgeStyle=entityRelationEdgeStyle;fontSize=12;html=1;endArrow=ERmany;startArrow=ERmany;rounded=0;entryX=0;entryY=0.46;entryDx=0;entryDy=0;entryPerimeter=0;" parent="1" source="avBrp512WOhUkqU3lyuj-2" target="avBrp512WOhUkqU3lyuj-13" edge="1">
          <mxGeometry width="100" height="100" relative="1" as="geometry">
            <mxPoint x="283.00000000000006" y="249.00300000000001" as="sourcePoint" />
            <mxPoint x="513.07" y="508.35" as="targetPoint" />
          </mxGeometry>
        </mxCell>
        <mxCell id="avBrp512WOhUkqU3lyuj-82" value="" style="edgeStyle=orthogonalEdgeStyle;fontSize=12;html=1;endArrow=ERoneToMany;rounded=0;entryX=1.017;entryY=0.363;entryDx=0;entryDy=0;entryPerimeter=0;exitX=1;exitY=0;exitDx=0;exitDy=0;" parent="1" source="avBrp512WOhUkqU3lyuj-30" target="avBrp512WOhUkqU3lyuj-22" edge="1">
          <mxGeometry width="100" height="100" relative="1" as="geometry">
            <mxPoint x="342" y="144" as="sourcePoint" />
            <mxPoint x="442" y="44" as="targetPoint" />
            <Array as="points">
              <mxPoint x="370" y="-31" />
              <mxPoint x="370" y="424" />
              <mxPoint x="273" y="424" />
            </Array>
          </mxGeometry>
        </mxCell>
        <mxCell id="avBrp512WOhUkqU3lyuj-83" value="" style="edgeStyle=orthogonalEdgeStyle;fontSize=12;html=1;endArrow=ERoneToMany;rounded=0;entryX=1;entryY=0.25;entryDx=0;entryDy=0;exitX=1.014;exitY=0.86;exitDx=0;exitDy=0;exitPerimeter=0;" parent="1" source="avBrp512WOhUkqU3lyuj-2" target="avBrp512WOhUkqU3lyuj-26" edge="1">
          <mxGeometry width="100" height="100" relative="1" as="geometry">
            <mxPoint x="319" y="857" as="sourcePoint" />
            <mxPoint x="419" y="757" as="targetPoint" />
            <Array as="points">
              <mxPoint x="310" y="283" />
              <mxPoint x="310" y="764" />
            </Array>
          </mxGeometry>
        </mxCell>
        <mxCell id="avBrp512WOhUkqU3lyuj-84" value="" style="edgeStyle=orthogonalEdgeStyle;fontSize=12;html=1;endArrow=ERoneToMany;rounded=0;entryX=0;entryY=0;entryDx=0;entryDy=0;exitX=0;exitY=0.5;exitDx=0;exitDy=0;" parent="1" source="avBrp512WOhUkqU3lyuj-28" target="avBrp512WOhUkqU3lyuj-24" edge="1">
          <mxGeometry width="100" height="100" relative="1" as="geometry">
            <mxPoint x="-50" y="915" as="sourcePoint" />
            <mxPoint x="50" y="815" as="targetPoint" />
            <Array as="points">
              <mxPoint x="45" y="960" />
              <mxPoint x="45" y="575" />
            </Array>
          </mxGeometry>
        </mxCell>
        <mxCell id="avBrp512WOhUkqU3lyuj-85" value="" style="edgeStyle=orthogonalEdgeStyle;fontSize=12;html=1;endArrow=ERoneToMany;rounded=0;entryX=0.5;entryY=0;entryDx=0;entryDy=0;exitX=0.55;exitY=0.986;exitDx=0;exitDy=0;exitPerimeter=0;" parent="1" source="avBrp512WOhUkqU3lyuj-24" target="avBrp512WOhUkqU3lyuj-25" edge="1">
          <mxGeometry width="100" height="100" relative="1" as="geometry">
            <mxPoint x="48" y="762" as="sourcePoint" />
            <mxPoint x="148" y="662" as="targetPoint" />
          </mxGeometry>
        </mxCell>
        <mxCell id="avBrp512WOhUkqU3lyuj-86" value="" style="endArrow=none;html=1;rounded=0;exitX=1;exitY=0.75;exitDx=0;exitDy=0;entryX=-0.008;entryY=0.158;entryDx=0;entryDy=0;entryPerimeter=0;edgeStyle=orthogonalEdgeStyle;" parent="1" source="avBrp512WOhUkqU3lyuj-22" target="avBrp512WOhUkqU3lyuj-47" edge="1">
          <mxGeometry relative="1" as="geometry">
            <mxPoint x="359" y="600" as="sourcePoint" />
            <mxPoint x="519" y="600" as="targetPoint" />
            <Array as="points">
              <mxPoint x="445" y="468" />
              <mxPoint x="445" y="865" />
              <mxPoint x="517" y="865" />
            </Array>
          </mxGeometry>
        </mxCell>
        <mxCell id="avBrp512WOhUkqU3lyuj-87" value="" style="edgeStyle=orthogonalEdgeStyle;fontSize=12;html=1;endArrow=ERoneToMany;rounded=0;entryX=0.869;entryY=-0.008;entryDx=0;entryDy=0;entryPerimeter=0;exitX=1;exitY=1;exitDx=0;exitDy=0;" parent="1" source="avBrp512WOhUkqU3lyuj-22" target="avBrp512WOhUkqU3lyuj-25" edge="1">
          <mxGeometry width="100" height="100" relative="1" as="geometry">
            <mxPoint x="348" y="778" as="sourcePoint" />
            <mxPoint x="448" y="678" as="targetPoint" />
            <Array as="points">
              <mxPoint x="271" y="480" />
              <mxPoint x="280" y="480" />
              <mxPoint x="280" y="681" />
              <mxPoint x="255" y="681" />
            </Array>
          </mxGeometry>
        </mxCell>
        <mxCell id="avBrp512WOhUkqU3lyuj-88" value="" style="edgeStyle=entityRelationEdgeStyle;fontSize=12;html=1;endArrow=ERmany;startArrow=ERmany;rounded=0;exitX=1;exitY=0;exitDx=0;exitDy=0;entryX=-0.014;entryY=0.83;entryDx=0;entryDy=0;entryPerimeter=0;" parent="1" source="avBrp512WOhUkqU3lyuj-32" target="avBrp512WOhUkqU3lyuj-2" edge="1">
          <mxGeometry width="100" height="100" relative="1" as="geometry">
            <mxPoint x="-31" y="639" as="sourcePoint" />
            <mxPoint x="69" y="539" as="targetPoint" />
          </mxGeometry>
        </mxCell>
        <mxCell id="avBrp512WOhUkqU3lyuj-96" value="" style="edgeStyle=elbowEdgeStyle;fontSize=12;html=1;endArrow=ERmany;rounded=0;entryX=-0.018;entryY=0.181;entryDx=0;entryDy=0;entryPerimeter=0;exitX=0;exitY=0.75;exitDx=0;exitDy=0;" parent="1" source="avBrp512WOhUkqU3lyuj-38" target="avBrp512WOhUkqU3lyuj-34" edge="1">
          <mxGeometry width="100" height="100" relative="1" as="geometry">
            <mxPoint x="-55" y="-319.9999999999998" as="sourcePoint" />
            <mxPoint x="24" y="-153" as="targetPoint" />
            <Array as="points">
              <mxPoint x="-55" y="-231" />
            </Array>
          </mxGeometry>
        </mxCell>
        <mxCell id="avBrp512WOhUkqU3lyuj-100" value="" style="edgeStyle=orthogonalEdgeStyle;fontSize=12;html=1;endArrow=ERoneToMany;rounded=0;entryX=0.16;entryY=-0.01;entryDx=0;entryDy=0;exitX=0.75;exitY=0;exitDx=0;exitDy=0;entryPerimeter=0;" parent="1" source="avBrp512WOhUkqU3lyuj-37" target="avBrp512WOhUkqU3lyuj-39" edge="1">
          <mxGeometry width="100" height="100" relative="1" as="geometry">
            <mxPoint x="482" y="-162" as="sourcePoint" />
            <mxPoint x="582" y="-262" as="targetPoint" />
            <Array as="points">
              <mxPoint x="236" y="-537" />
              <mxPoint x="544" y="-537" />
            </Array>
          </mxGeometry>
        </mxCell>
        <mxCell id="avBrp512WOhUkqU3lyuj-101" value="" style="edgeStyle=entityRelationEdgeStyle;fontSize=12;html=1;endArrow=ERoneToMany;rounded=0;entryX=0;entryY=0.15;entryDx=0;entryDy=0;entryPerimeter=0;exitX=0.996;exitY=0.629;exitDx=0;exitDy=0;exitPerimeter=0;" parent="1" source="avBrp512WOhUkqU3lyuj-34" target="avBrp512WOhUkqU3lyuj-39" edge="1">
          <mxGeometry width="100" height="100" relative="1" as="geometry">
            <mxPoint x="492" y="-152" as="sourcePoint" />
            <mxPoint x="635" y="-303" as="targetPoint" />
          </mxGeometry>
        </mxCell>
        <mxCell id="avBrp512WOhUkqU3lyuj-102" value="" style="edgeStyle=entityRelationEdgeStyle;fontSize=12;html=1;endArrow=ERoneToMany;rounded=0;entryX=0;entryY=0.25;entryDx=0;entryDy=0;exitX=0.994;exitY=0.103;exitDx=0;exitDy=0;exitPerimeter=0;" parent="1" source="avBrp512WOhUkqU3lyuj-2" target="avBrp512WOhUkqU3lyuj-39" edge="1">
          <mxGeometry width="100" height="100" relative="1" as="geometry">
            <mxPoint x="502" y="-142" as="sourcePoint" />
            <mxPoint x="602" y="-242" as="targetPoint" />
          </mxGeometry>
        </mxCell>
        <mxCell id="avBrp512WOhUkqU3lyuj-103" value="" style="edgeStyle=orthogonalEdgeStyle;fontSize=12;html=1;endArrow=ERoneToMany;rounded=0;entryX=-0.037;entryY=0.417;entryDx=0;entryDy=0;entryPerimeter=0;exitX=0;exitY=0.5;exitDx=0;exitDy=0;" parent="1" source="avBrp512WOhUkqU3lyuj-14" target="avBrp512WOhUkqU3lyuj-39" edge="1">
          <mxGeometry width="100" height="100" relative="1" as="geometry">
            <mxPoint x="512" y="-132" as="sourcePoint" />
            <mxPoint x="612" y="-232" as="targetPoint" />
            <Array as="points">
              <mxPoint x="489" y="545" />
              <mxPoint x="489" y="-433" />
            </Array>
          </mxGeometry>
        </mxCell>
        <mxCell id="avBrp512WOhUkqU3lyuj-104" value="" style="edgeStyle=entityRelationEdgeStyle;fontSize=12;html=1;endArrow=ERoneToMany;rounded=0;entryX=0;entryY=0.5;entryDx=0;entryDy=0;exitX=1;exitY=0;exitDx=0;exitDy=0;" parent="1" source="avBrp512WOhUkqU3lyuj-22" target="avBrp512WOhUkqU3lyuj-39" edge="1">
          <mxGeometry width="100" height="100" relative="1" as="geometry">
            <mxPoint x="522" y="-122" as="sourcePoint" />
            <mxPoint x="622" y="-222" as="targetPoint" />
          </mxGeometry>
        </mxCell>
        <mxCell id="r8XomwirjA-dU1PeyV1h-11" value="" style="edgeStyle=elbowEdgeStyle;fontSize=12;html=1;endArrow=ERmany;startArrow=ERmany;rounded=0;exitX=0;exitY=0.25;exitDx=0;exitDy=0;entryX=0;entryY=0.25;entryDx=0;entryDy=0;" parent="1" source="avBrp512WOhUkqU3lyuj-22" target="avBrp512WOhUkqU3lyuj-2" edge="1">
          <mxGeometry width="100" height="100" relative="1" as="geometry">
            <mxPoint x="193" y="442" as="sourcePoint" />
            <mxPoint x="293" y="342" as="targetPoint" />
            <Array as="points">
              <mxPoint x="31" y="311" />
            </Array>
          </mxGeometry>
        </mxCell>
        <mxCell id="r8XomwirjA-dU1PeyV1h-23" value="" style="edgeStyle=entityRelationEdgeStyle;fontSize=12;html=1;endArrow=ERoneToMany;rounded=0;exitX=1.03;exitY=0.121;exitDx=0;exitDy=0;exitPerimeter=0;entryX=0;entryY=1;entryDx=0;entryDy=0;" parent="1" source="avBrp512WOhUkqU3lyuj-29" target="avBrp512WOhUkqU3lyuj-40" edge="1">
          <mxGeometry width="100" height="100" relative="1" as="geometry">
            <mxPoint x="193" y="-132" as="sourcePoint" />
            <mxPoint x="293" y="-232" as="targetPoint" />
          </mxGeometry>
        </mxCell>
        <mxCell id="r8XomwirjA-dU1PeyV1h-24" value="" style="edgeStyle=orthogonalEdgeStyle;fontSize=12;html=1;endArrow=ERmany;rounded=0;exitX=0.5;exitY=0;exitDx=0;exitDy=0;" parent="1" source="avBrp512WOhUkqU3lyuj-15" edge="1">
          <mxGeometry width="100" height="100" relative="1" as="geometry">
            <mxPoint x="193" y="109" as="sourcePoint" />
            <mxPoint x="588" y="-484" as="targetPoint" />
            <Array as="points">
              <mxPoint x="-115" y="-564" />
              <mxPoint x="589" y="-564" />
            </Array>
          </mxGeometry>
        </mxCell>
        <mxCell id="r8XomwirjA-dU1PeyV1h-25" value="" style="edgeStyle=orthogonalEdgeStyle;fontSize=12;html=1;endArrow=ERmany;rounded=0;exitX=0.155;exitY=0.004;exitDx=0;exitDy=0;exitPerimeter=0;entryX=1;entryY=0.5;entryDx=0;entryDy=0;" parent="1" source="avBrp512WOhUkqU3lyuj-3" target="avBrp512WOhUkqU3lyuj-40" edge="1">
          <mxGeometry width="100" height="100" relative="1" as="geometry">
            <mxPoint x="193" y="-12" as="sourcePoint" />
            <mxPoint x="293" y="-112" as="targetPoint" />
            <Array as="points">
              <mxPoint x="542" y="14" />
              <mxPoint x="723" y="14" />
              <mxPoint x="723" y="-398" />
            </Array>
          </mxGeometry>
        </mxCell>
        <mxCell id="r8XomwirjA-dU1PeyV1h-26" value="" style="edgeStyle=orthogonalEdgeStyle;fontSize=12;html=1;endArrow=ERmany;rounded=0;exitX=1;exitY=0.25;exitDx=0;exitDy=0;entryX=1;entryY=0.317;entryDx=0;entryDy=0;entryPerimeter=0;" parent="1" source="avBrp512WOhUkqU3lyuj-11" target="avBrp512WOhUkqU3lyuj-39" edge="1">
          <mxGeometry width="100" height="100" relative="1" as="geometry">
            <mxPoint x="193" y="236" as="sourcePoint" />
            <mxPoint x="293" y="136" as="targetPoint" />
          </mxGeometry>
        </mxCell>
        <mxCell id="r8XomwirjA-dU1PeyV1h-27" value="" style="edgeStyle=orthogonalEdgeStyle;fontSize=12;html=1;endArrow=ERmany;rounded=0;exitX=1;exitY=0;exitDx=0;exitDy=0;entryX=0.995;entryY=0.15;entryDx=0;entryDy=0;entryPerimeter=0;" parent="1" source="avBrp512WOhUkqU3lyuj-14" target="avBrp512WOhUkqU3lyuj-39" edge="1">
          <mxGeometry width="100" height="100" relative="1" as="geometry">
            <mxPoint x="193" y="475" as="sourcePoint" />
            <mxPoint x="293" y="375" as="targetPoint" />
            <Array as="points">
              <mxPoint x="746" y="510" />
              <mxPoint x="746" y="-465" />
            </Array>
          </mxGeometry>
        </mxCell>
        <mxCell id="r8XomwirjA-dU1PeyV1h-28" value="" style="edgeStyle=orthogonalEdgeStyle;fontSize=12;html=1;endArrow=ERmany;rounded=0;exitX=0;exitY=0;exitDx=0;exitDy=0;entryX=0.66;entryY=0.017;entryDx=0;entryDy=0;entryPerimeter=0;" parent="1" source="avBrp512WOhUkqU3lyuj-32" target="avBrp512WOhUkqU3lyuj-39" edge="1">
          <mxGeometry width="100" height="100" relative="1" as="geometry">
            <mxPoint x="193" y="741" as="sourcePoint" />
            <mxPoint x="293" y="641" as="targetPoint" />
            <Array as="points">
              <mxPoint x="-233" y="713" />
              <mxPoint x="-233" y="-651" />
              <mxPoint x="624" y="-651" />
            </Array>
          </mxGeometry>
        </mxCell>
        <mxCell id="r8XomwirjA-dU1PeyV1h-29" value="Season" style="swimlane;childLayout=stackLayout;horizontal=1;startSize=50;horizontalStack=0;rounded=1;fontSize=14;fontStyle=0;strokeWidth=2;resizeParent=0;resizeLast=1;shadow=0;dashed=0;align=center;arcSize=4;whiteSpace=wrap;html=1;" parent="1" vertex="1">
          <mxGeometry x="-101" y="-545" width="160" height="90" as="geometry" />
        </mxCell>
        <mxCell id="r8XomwirjA-dU1PeyV1h-30" value="&lt;u&gt;SeasonID&lt;/u&gt;&lt;div&gt;&lt;span style=&quot;background-color: initial;&quot;&gt;Year&lt;/span&gt;&lt;br&gt;&lt;/div&gt;" style="align=left;strokeColor=none;fillColor=none;spacingLeft=4;fontSize=12;verticalAlign=top;resizable=0;rotatable=0;part=1;html=1;" parent="r8XomwirjA-dU1PeyV1h-29" vertex="1">
          <mxGeometry y="50" width="160" height="40" as="geometry" />
        </mxCell>
        <mxCell id="r8XomwirjA-dU1PeyV1h-31" value="" style="edgeStyle=entityRelationEdgeStyle;fontSize=12;html=1;endArrow=ERoneToMany;rounded=0;entryX=0;entryY=0.323;entryDx=0;entryDy=0;entryPerimeter=0;exitX=1;exitY=0.25;exitDx=0;exitDy=0;" parent="1" source="r8XomwirjA-dU1PeyV1h-30" target="avBrp512WOhUkqU3lyuj-37" edge="1">
          <mxGeometry width="100" height="100" relative="1" as="geometry">
            <mxPoint x="59" y="-490" as="sourcePoint" />
            <mxPoint x="159" y="-590" as="targetPoint" />
          </mxGeometry>
        </mxCell>
        <mxCell id="r8XomwirjA-dU1PeyV1h-32" value="" style="edgeStyle=entityRelationEdgeStyle;fontSize=12;html=1;endArrow=ERoneToMany;rounded=0;entryX=0;entryY=0;entryDx=0;entryDy=0;exitX=1;exitY=0.25;exitDx=0;exitDy=0;" parent="1" source="r8XomwirjA-dU1PeyV1h-29" target="avBrp512WOhUkqU3lyuj-39" edge="1">
          <mxGeometry width="100" height="100" relative="1" as="geometry">
            <mxPoint x="59" y="-518" as="sourcePoint" />
            <mxPoint x="159" y="-618" as="targetPoint" />
          </mxGeometry>
        </mxCell>
        <mxCell id="qXYceQB98_0o9-eCwF8V-1" value="" style="edgeStyle=entityRelationEdgeStyle;fontSize=12;html=1;endArrow=ERoneToMany;rounded=0;entryX=0;entryY=0;entryDx=0;entryDy=0;exitX=1;exitY=0.75;exitDx=0;exitDy=0;" edge="1" parent="1" source="avBrp512WOhUkqU3lyuj-34" target="avBrp512WOhUkqU3lyuj-3">
          <mxGeometry width="100" height="100" relative="1" as="geometry">
            <mxPoint x="505" y="-141" as="sourcePoint" />
            <mxPoint x="605" y="-241" as="targetPoint" />
          </mxGeometry>
        </mxCell>
        <mxCell id="qXYceQB98_0o9-eCwF8V-2" value="Event" style="swimlane;childLayout=stackLayout;horizontal=1;startSize=50;horizontalStack=0;rounded=1;fontSize=14;fontStyle=0;strokeWidth=2;resizeParent=0;resizeLast=1;shadow=0;dashed=0;align=center;arcSize=4;whiteSpace=wrap;html=1;" vertex="1" parent="1">
          <mxGeometry x="510" y="-274" width="160" height="89" as="geometry" />
        </mxCell>
        <mxCell id="qXYceQB98_0o9-eCwF8V-3" value="&lt;u&gt;ID&lt;/u&gt;&lt;div&gt;&lt;u&gt;&lt;br&gt;&lt;/u&gt;&lt;/div&gt;" style="align=left;strokeColor=none;fillColor=none;spacingLeft=4;fontSize=12;verticalAlign=top;resizable=0;rotatable=0;part=1;html=1;" vertex="1" parent="qXYceQB98_0o9-eCwF8V-2">
          <mxGeometry y="50" width="160" height="39" as="geometry" />
        </mxCell>
        <mxCell id="qXYceQB98_0o9-eCwF8V-4" value="" style="edgeStyle=entityRelationEdgeStyle;fontSize=12;html=1;endArrow=ERoneToMany;rounded=0;entryX=0;entryY=0.5;entryDx=0;entryDy=0;exitX=1;exitY=0.5;exitDx=0;exitDy=0;" edge="1" parent="1" source="avBrp512WOhUkqU3lyuj-38" target="qXYceQB98_0o9-eCwF8V-3">
          <mxGeometry width="100" height="100" relative="1" as="geometry">
            <mxPoint x="579" y="-148" as="sourcePoint" />
            <mxPoint x="564" y="-112" as="targetPoint" />
          </mxGeometry>
        </mxCell>
        <mxCell id="qXYceQB98_0o9-eCwF8V-6" value="" style="endArrow=none;html=1;rounded=0;exitX=0.5;exitY=1;exitDx=0;exitDy=0;entryX=0.5;entryY=0;entryDx=0;entryDy=0;" edge="1" parent="1" source="qXYceQB98_0o9-eCwF8V-3" target="avBrp512WOhUkqU3lyuj-3">
          <mxGeometry relative="1" as="geometry">
            <mxPoint x="535" y="-61" as="sourcePoint" />
            <mxPoint x="695" y="-61" as="targetPoint" />
          </mxGeometry>
        </mxCell>
        <mxCell id="qXYceQB98_0o9-eCwF8V-7" value="" style="endArrow=none;html=1;rounded=0;entryX=0.5;entryY=1;entryDx=0;entryDy=0;exitX=1;exitY=0;exitDx=0;exitDy=0;" edge="1" parent="1" source="avBrp512WOhUkqU3lyuj-1" target="qXYceQB98_0o9-eCwF8V-3">
          <mxGeometry relative="1" as="geometry">
            <mxPoint x="439" y="-45" as="sourcePoint" />
            <mxPoint x="599" y="-45" as="targetPoint" />
          </mxGeometry>
        </mxCell>
        <mxCell id="qXYceQB98_0o9-eCwF8V-8" value="" style="endArrow=none;html=1;rounded=0;exitX=1;exitY=0.25;exitDx=0;exitDy=0;entryX=0;entryY=0;entryDx=0;entryDy=0;" edge="1" parent="1" source="avBrp512WOhUkqU3lyuj-34" target="qXYceQB98_0o9-eCwF8V-3">
          <mxGeometry relative="1" as="geometry">
            <mxPoint x="311" y="-259" as="sourcePoint" />
            <mxPoint x="471" y="-259" as="targetPoint" />
          </mxGeometry>
        </mxCell>
        <mxCell id="qXYceQB98_0o9-eCwF8V-9" value="judge" style="shape=rhombus;perimeter=rhombusPerimeter;whiteSpace=wrap;html=1;align=center;" vertex="1" parent="1">
          <mxGeometry x="329" y="-433" width="120" height="60" as="geometry" />
        </mxCell>
        <mxCell id="qXYceQB98_0o9-eCwF8V-10" value="" style="endArrow=none;html=1;rounded=0;exitX=1;exitY=0.5;exitDx=0;exitDy=0;entryX=0.5;entryY=0;entryDx=0;entryDy=0;" edge="1" parent="1" source="qXYceQB98_0o9-eCwF8V-9" target="qXYceQB98_0o9-eCwF8V-2">
          <mxGeometry relative="1" as="geometry">
            <mxPoint x="511" y="-314" as="sourcePoint" />
            <mxPoint x="671" y="-314" as="targetPoint" />
          </mxGeometry>
        </mxCell>
        <mxCell id="qXYceQB98_0o9-eCwF8V-11" value="" style="edgeStyle=elbowEdgeStyle;fontSize=12;html=1;endArrow=ERoneToMany;rounded=0;exitX=0;exitY=0.5;exitDx=0;exitDy=0;" edge="1" parent="1" source="qXYceQB98_0o9-eCwF8V-9">
          <mxGeometry width="100" height="100" relative="1" as="geometry">
            <mxPoint x="34" y="-261" as="sourcePoint" />
            <mxPoint x="291" y="-266" as="targetPoint" />
            <Array as="points">
              <mxPoint x="317" y="-338" />
            </Array>
          </mxGeometry>
        </mxCell>
        <mxCell id="qXYceQB98_0o9-eCwF8V-12" value="score" style="ellipse;whiteSpace=wrap;html=1;align=center;" vertex="1" parent="1">
          <mxGeometry x="339" y="-480" width="100" height="40" as="geometry" />
        </mxCell>
        <mxCell id="qXYceQB98_0o9-eCwF8V-13" value="" style="endArrow=none;html=1;rounded=0;entryX=0.5;entryY=0;entryDx=0;entryDy=0;" edge="1" parent="1" target="qXYceQB98_0o9-eCwF8V-9">
          <mxGeometry relative="1" as="geometry">
            <mxPoint x="389" y="-433" as="sourcePoint" />
            <mxPoint x="375" y="-239" as="targetPoint" />
          </mxGeometry>
        </mxCell>
        <mxCell id="qXYceQB98_0o9-eCwF8V-14" value="" style="endArrow=none;html=1;rounded=0;exitX=0.5;exitY=0;exitDx=0;exitDy=0;entryX=0.5;entryY=1;entryDx=0;entryDy=0;" edge="1" parent="1" source="qXYceQB98_0o9-eCwF8V-9" target="qXYceQB98_0o9-eCwF8V-12">
          <mxGeometry relative="1" as="geometry">
            <mxPoint x="375" y="-350" as="sourcePoint" />
            <mxPoint x="535" y="-350" as="targetPoint" />
          </mxGeometry>
        </mxCell>
      </root>
    </mxGraphModel>
  </diagram>
</mxfile>
